<svg xmlns="http://www.w3.org/2000/svg" width="21" height="20" viewBox="0 0 21 20" fill="none">
  <path d="M4.39705 4.05379L4.46967 3.96967C4.73594 3.7034 5.1526 3.6792 5.44621 3.89705L5.53033 3.96967L10.5 8.939L15.4697 3.96967C15.7359 3.7034 16.1526 3.6792 16.4462 3.89705L16.5303 3.96967C16.7966 4.23594 16.8208 4.6526 16.6029 4.94621L16.5303 5.03033L11.561 10L16.5303 14.9697C16.7966 15.2359 16.8208 15.6526 16.6029 15.9462L16.5303 16.0303C16.2641 16.2966 15.8474 16.3208 15.5538 16.1029L15.4697 16.0303L10.5 11.061L5.53033 16.0303C5.26406 16.2966 4.8474 16.3208 4.55379 16.1029L4.46967 16.0303C4.2034 15.7641 4.1792 15.3474 4.39705 15.0538L4.46967 14.9697L9.439 10L4.46967 5.03033C4.2034 4.76406 4.1792 4.3474 4.39705 4.05379L4.46967 3.96967L4.39705 4.05379Z" fill="white"/>
</svg>