<svg width="72" height="72" viewBox="0 0 72 72" fill="none" xmlns="http://www.w3.org/2000/svg">
<path d="M0 13.5053C0 8.97483 3.93658 5.60962 8.548 3.50411C14.3891 1.07729 20.6697 -0.112958 26.9937 0.00843357C33.3177 -0.112958 39.5983 1.07729 45.4394 3.50411C50.0508 5.60962 53.9874 8.97483 53.9874 13.5053V27.2788C52.5145 26.9087 50.9605 26.9104 49.4884 27.2838V21.1535C48.2261 22.0818 46.8688 22.8735 45.4394 23.5154C39.5976 25.9392 33.3171 27.1263 26.9937 27.0021C20.6697 27.1235 14.3891 25.9333 8.548 23.5064C7.11897 22.8674 5.7617 22.0787 4.49895 21.1535V58.4947C4.49895 60.1773 6.10057 62.4313 10.4286 64.4018C15.6799 66.5571 21.3184 67.6092 26.9937 67.4926L27.0113 67.493C27.0129 69.0961 27.4516 70.648 28.2343 71.9986C27.821 72.0018 27.4075 71.9995 26.9937 71.9916C20.6697 72.113 14.3891 70.9227 8.548 68.4959C3.93658 66.3904 0 63.0252 0 58.4947V13.5053ZM4.49895 13.5053C4.49895 15.1879 6.10057 17.4418 10.4286 19.4124C15.6799 21.5676 21.3184 22.6197 26.9937 22.5032C32.6689 22.6197 38.3074 21.5676 43.5588 19.4124C47.8868 17.4418 49.4884 15.1879 49.4884 13.5053C49.4884 11.8227 47.8868 9.5687 43.5588 7.59816C38.3074 5.44289 32.6689 4.39084 26.9937 4.50738C21.3184 4.39084 15.6799 5.44289 10.4286 7.59816C6.10057 9.5687 4.49895 11.8227 4.49895 13.5053ZM47.702 33.9918L31.973 65.4775C30.4775 68.4711 32.6547 71.9919 36.0013 71.9919H67.4745C70.8218 71.9919 72.9989 68.4696 71.502 65.476L55.7578 33.9903C54.098 30.6711 49.3605 30.672 47.702 33.9918ZM53.9799 42.7267V56.2339C53.9799 57.4772 52.9719 58.4852 51.7285 58.4852C50.4851 58.4852 49.4771 57.4772 49.4771 56.2339V42.7267C49.4771 41.4834 50.4851 40.4755 51.7285 40.4755C52.9719 40.4755 53.9799 41.4834 53.9799 42.7267ZM51.7285 67.49C50.4851 67.49 49.4771 66.4821 49.4771 65.2388C49.4771 63.9955 50.4851 62.9876 51.7285 62.9876C52.9719 62.9876 53.9799 63.9955 53.9799 65.2388C53.9799 66.4821 52.9719 67.49 51.7285 67.49Z" fill="#9BA9B0"/>
</svg>
