<svg width="72" height="73" viewBox="0 0 72 73" fill="none" xmlns="http://www.w3.org/2000/svg">
<path d="M0 11.75C0 5.5368 5.0368 0.5 11.25 0.5H54.75C60.9632 0.5 66 5.5368 66 11.75V34.9984C64.6152 33.9582 63.1065 33.0741 61.5 32.3722V24.5H46.5V31.3088C44.9239 31.7439 43.4171 32.346 42 33.0951V24.5L24 24.5V42.5L32.5951 42.5C31.8461 43.9171 31.2439 45.4239 30.8088 47L24 47V62H31.8722C32.5741 63.6065 33.4582 65.1152 34.4984 66.5H11.25C5.0368 66.5 0 61.4632 0 55.25V11.75ZM4.5 47V55.25C4.5 58.9779 7.52208 62 11.25 62H19.5V47H4.5ZM19.5 42.5V24.5H4.5V42.5H19.5ZM61.5 11.75C61.5 8.02208 58.4779 5 54.75 5H46.5V20H61.5V11.75ZM42 5H24V20L42 20V5ZM19.5 5H11.25C7.52208 5 4.5 8.02208 4.5 11.75V20H19.5V5ZM72 53C72 63.7696 63.2696 72.5 52.5 72.5C41.7304 72.5 33 63.7696 33 53C33 42.2304 41.7304 33.5 52.5 33.5C63.2696 33.5 72 42.2304 72 53ZM44.5607 42.9393C43.9749 42.3535 43.0251 42.3535 42.4393 42.9393C41.8536 43.5251 41.8536 44.4749 42.4393 45.0607L50.3787 53L42.4393 60.9393C41.8536 61.5251 41.8536 62.4749 42.4393 63.0607C43.0251 63.6464 43.9749 63.6464 44.5607 63.0607L52.5 55.1213L60.4393 63.0607C61.0251 63.6464 61.9749 63.6464 62.5607 63.0607C63.1465 62.4749 63.1465 61.5251 62.5607 60.9393L54.6213 53L62.5607 45.0607C63.1465 44.4749 63.1465 43.5251 62.5607 42.9393C61.9749 42.3535 61.0251 42.3535 60.4393 42.9393L52.5 50.8787L44.5607 42.9393Z" fill="#9BA9B0"/>
</svg>
