<svg width="72" height="72" fill="none" xmlns="http://www.w3.org/2000/svg" focusable="false" class="chakra-icon css-16v4w2w"><path d="M59.298 15.535c4.369 5.748 3.93 13.984-1.319 19.232l-5.186 5.186a2 2 0 0 1-2.828 0L32.05 22.038a2 2 0 0 1 0-2.828l5.186-5.186c5.248-5.248 13.485-5.688 19.234-1.318l8.119-8.12a2 2 0 0 1 2.829 2.828l-8.12 8.12ZM32.731 31.398a2 2 0 1 0-2.829-2.828l-5.67 5.67-2.193-2.193a2 2 0 0 0-2.829 0l-5.186 5.186c-5.248 5.248-5.687 13.484-1.319 19.232l-8.12 8.12a2 2 0 0 0 2.83 2.83l8.119-8.12c5.749 4.369 13.985 3.93 19.233-1.32l5.186-5.185a2 2 0 0 0 0-2.829l-2.206-2.206 5.668-5.667a2 2 0 1 0-2.828-2.829l-5.668 5.668-7.859-7.858 5.67-5.67ZM63.1 49.278c-.951-1.704-3.429-1.704-4.38 0l-8.405 15.056C49.395 65.98 50.6 68 52.505 68h16.809c1.903 0 3.109-2.019 2.19-3.666L63.1 49.278Zm-1.281 14.228a.904.904 0 0 1-.91.899.904.904 0 0 1-.909-.899c0-.496.407-.899.91-.899.502 0 .909.403.909.899Zm-1.592-2.921v-5.843c0-.373.306-.674.683-.674.376 0 .682.301.682.674v5.843a.678.678 0 0 1-.682.674.678.678 0 0 1-.682-.674Z" fill="#E9560D"></path></svg>